<svg xmlns="http://www.w3.org/2000/svg" viewBox="0 0 358.29 358.29"><path d="M179.14,0C278,0,358.28,80.27,358.28,179.14S278,358.28,179.14,358.28,0,278,0,179.14,80.27,0,179.14,0Z" fill="#f6f7f9" fill-rule="evenodd"/><path d="M258.52,189.76c-3.66-9.7-13.9-13.89-23.85-11.51a25.17,25.17,0,0,0-3,.89c-2.76,4.18,0,.1,0,.1l-87.21,32.92a.93.93,0,0,1,0,.13,56.26,56.26,0,0,1-60.19-13.76,53,53,0,0,1-11.26-17.86,53.73,53.73,0,0,1-3.42-20.37,55,55,0,0,1,35.67-50h0l156-58.91a151.89,151.89,0,0,0-192,232.69l178.54-67.4c10-4.52,14.51-16.67,10.62-27" fill="#2183c6"/><path d="M105.44,169.81c4,10.68,16,14.7,26.82,10.62l87.27-32.94.13-.05h0a56.08,56.08,0,0,1,60.13,13.78,52.93,52.93,0,0,1,11.1,17.7,53.49,53.49,0,0,1,3.42,20.59,55,55,0,0,1-35.67,49.72l-.07-.19-158.4,59.8a151.85,151.85,0,0,0,191-232.18l-174,65.69c-10.81,4.09-15.79,16.79-11.76,27.47" fill="#4e99d3"/><path d="M55.22,287.09A164.38,164.38,0,0,1,179,14.67q3.45,0,6.92.15a163.23,163.23,0,0,1,90.88,31.94l16.14-6A179.07,179.07,0,0,0,40.54,292.45l14.68-5.36Z" fill="#2c3136"/><path d="M319.08,67.36l-14.54,5.4A163.26,163.26,0,0,1,343.47,185.9h0a164.35,164.35,0,0,1-260,126.88l-16.4,6a178.24,178.24,0,0,0,104.77,39.39q3.78.15,7.53.15A179.1,179.1,0,0,0,319.08,67.36" fill="#2c3136"/></svg>